<svg width="158" height="27" viewBox="0 0 158 27" fill="none" xmlns="http://www.w3.org/2000/svg">
<path d="M61.036 7.364V15.968C61.036 17.3 60.658 18.326 59.902 19.046C59.158 19.766 58.15 20.126 56.878 20.126C55.546 20.126 54.478 19.748 53.674 18.992C52.87 18.236 52.468 17.162 52.468 15.77H55.528C55.528 16.298 55.636 16.7 55.852 16.976C56.068 17.24 56.38 17.372 56.788 17.372C57.16 17.372 57.448 17.252 57.652 17.012C57.856 16.772 57.958 16.424 57.958 15.968V7.364H61.036ZM73.4403 9.956V20H70.3623V18.632C70.0503 19.076 69.6243 19.436 69.0843 19.712C68.5563 19.976 67.9683 20.108 67.3203 20.108C66.5523 20.108 65.8743 19.94 65.2863 19.604C64.6983 19.256 64.2423 18.758 63.9183 18.11C63.5943 17.462 63.4323 16.7 63.4323 15.824V9.956H66.4923V15.41C66.4923 16.082 66.6663 16.604 67.0143 16.976C67.3623 17.348 67.8303 17.534 68.4183 17.534C69.0183 17.534 69.4923 17.348 69.8403 16.976C70.1883 16.604 70.3623 16.082 70.3623 15.41V9.956H73.4403ZM79.7372 20.144C78.8612 20.144 78.0812 19.994 77.3972 19.694C76.7132 19.394 76.1732 18.986 75.7772 18.47C75.3812 17.942 75.1592 17.354 75.1112 16.706H78.1532C78.1892 17.054 78.3512 17.336 78.6392 17.552C78.9272 17.768 79.2812 17.876 79.7012 17.876C80.0852 17.876 80.3792 17.804 80.5832 17.66C80.7992 17.504 80.9072 17.306 80.9072 17.066C80.9072 16.778 80.7572 16.568 80.4572 16.436C80.1572 16.292 79.6712 16.136 78.9992 15.968C78.2792 15.8 77.6792 15.626 77.1992 15.446C76.7192 15.254 76.3052 14.96 75.9572 14.564C75.6092 14.156 75.4352 13.61 75.4352 12.926C75.4352 12.35 75.5912 11.828 75.9032 11.36C76.2272 10.88 76.6952 10.502 77.3072 10.226C77.9312 9.95 78.6692 9.812 79.5212 9.812C80.7812 9.812 81.7712 10.124 82.4912 10.748C83.2232 11.372 83.6432 12.2 83.7512 13.232H80.9072C80.8592 12.884 80.7032 12.608 80.4392 12.404C80.1872 12.2 79.8512 12.098 79.4312 12.098C79.0712 12.098 78.7952 12.17 78.6032 12.314C78.4112 12.446 78.3152 12.632 78.3152 12.872C78.3152 13.16 78.4652 13.376 78.7652 13.52C79.0772 13.664 79.5572 13.808 80.2052 13.952C80.9492 14.144 81.5552 14.336 82.0232 14.528C82.4912 14.708 82.8992 15.008 83.2472 15.428C83.6072 15.836 83.7932 16.388 83.8052 17.084C83.8052 17.672 83.6372 18.2 83.3012 18.668C82.9772 19.124 82.5032 19.484 81.8792 19.748C81.2672 20.012 80.5532 20.144 79.7372 20.144ZM91.2863 17.39V20H89.7203C88.6043 20 87.7343 19.73 87.1103 19.19C86.4863 18.638 86.1743 17.744 86.1743 16.508V12.512H84.9503V9.956H86.1743V7.508H89.2523V9.956H91.2683V12.512H89.2523V16.544C89.2523 16.844 89.3243 17.06 89.4683 17.192C89.6123 17.324 89.8523 17.39 90.1883 17.39H91.2863ZM107.311 7.364V20H104.233V12.422L101.407 20H98.9228L96.0788 12.404V20H93.0008V7.364H96.6368L100.183 16.112L103.693 7.364H107.311ZM114.096 20.144C113.112 20.144 112.224 19.934 111.432 19.514C110.652 19.094 110.034 18.494 109.578 17.714C109.134 16.934 108.912 16.022 108.912 14.978C108.912 13.946 109.14 13.04 109.596 12.26C110.052 11.468 110.676 10.862 111.468 10.442C112.26 10.022 113.148 9.812 114.132 9.812C115.116 9.812 116.004 10.022 116.796 10.442C117.588 10.862 118.212 11.468 118.668 12.26C119.124 13.04 119.352 13.946 119.352 14.978C119.352 16.01 119.118 16.922 118.65 17.714C118.194 18.494 117.564 19.094 116.76 19.514C115.968 19.934 115.08 20.144 114.096 20.144ZM114.096 17.48C114.684 17.48 115.182 17.264 115.59 16.832C116.01 16.4 116.22 15.782 116.22 14.978C116.22 14.174 116.016 13.556 115.608 13.124C115.212 12.692 114.72 12.476 114.132 12.476C113.532 12.476 113.034 12.692 112.638 13.124C112.242 13.544 112.044 14.162 112.044 14.978C112.044 15.782 112.236 16.4 112.62 16.832C113.016 17.264 113.508 17.48 114.096 17.48ZM125.503 17.12L127.681 9.956H130.957L127.393 20H123.595L120.031 9.956H123.325L125.503 17.12ZM133.801 8.912C133.261 8.912 132.817 8.756 132.469 8.444C132.133 8.12 131.965 7.724 131.965 7.256C131.965 6.776 132.133 6.38 132.469 6.068C132.817 5.744 133.261 5.582 133.801 5.582C134.329 5.582 134.761 5.744 135.097 6.068C135.445 6.38 135.619 6.776 135.619 7.256C135.619 7.724 135.445 8.12 135.097 8.444C134.761 8.756 134.329 8.912 133.801 8.912ZM135.331 9.956V20H132.253V9.956H135.331ZM147.029 14.816C147.029 15.104 147.011 15.404 146.975 15.716H140.009C140.057 16.34 140.255 16.82 140.603 17.156C140.963 17.48 141.401 17.642 141.917 17.642C142.685 17.642 143.219 17.318 143.519 16.67H146.795C146.627 17.33 146.321 17.924 145.877 18.452C145.445 18.98 144.899 19.394 144.239 19.694C143.579 19.994 142.841 20.144 142.025 20.144C141.041 20.144 140.165 19.934 139.397 19.514C138.629 19.094 138.029 18.494 137.597 17.714C137.165 16.934 136.949 16.022 136.949 14.978C136.949 13.934 137.159 13.022 137.579 12.242C138.011 11.462 138.611 10.862 139.379 10.442C140.147 10.022 141.029 9.812 142.025 9.812C142.997 9.812 143.861 10.016 144.617 10.424C145.373 10.832 145.961 11.414 146.381 12.17C146.813 12.926 147.029 13.808 147.029 14.816ZM143.879 14.006C143.879 13.478 143.699 13.058 143.339 12.746C142.979 12.434 142.529 12.278 141.989 12.278C141.473 12.278 141.035 12.428 140.675 12.728C140.327 13.028 140.111 13.454 140.027 14.006H143.879ZM152.739 20.144C151.863 20.144 151.083 19.994 150.399 19.694C149.715 19.394 149.175 18.986 148.779 18.47C148.383 17.942 148.161 17.354 148.113 16.706H151.155C151.191 17.054 151.353 17.336 151.641 17.552C151.929 17.768 152.283 17.876 152.703 17.876C153.087 17.876 153.381 17.804 153.585 17.66C153.801 17.504 153.909 17.306 153.909 17.066C153.909 16.778 153.759 16.568 153.459 16.436C153.159 16.292 152.673 16.136 152.001 15.968C151.281 15.8 150.681 15.626 150.201 15.446C149.721 15.254 149.307 14.96 148.959 14.564C148.611 14.156 148.437 13.61 148.437 12.926C148.437 12.35 148.593 11.828 148.905 11.36C149.229 10.88 149.697 10.502 150.309 10.226C150.933 9.95 151.671 9.812 152.523 9.812C153.783 9.812 154.773 10.124 155.493 10.748C156.225 11.372 156.645 12.2 156.753 13.232H153.909C153.861 12.884 153.705 12.608 153.441 12.404C153.189 12.2 152.853 12.098 152.433 12.098C152.073 12.098 151.797 12.17 151.605 12.314C151.413 12.446 151.317 12.632 151.317 12.872C151.317 13.16 151.467 13.376 151.767 13.52C152.079 13.664 152.559 13.808 153.207 13.952C153.951 14.144 154.557 14.336 155.025 14.528C155.493 14.708 155.901 15.008 156.249 15.428C156.609 15.836 156.795 16.388 156.807 17.084C156.807 17.672 156.639 18.2 156.303 18.668C155.979 19.124 155.505 19.484 154.881 19.748C154.269 20.012 153.555 20.144 152.739 20.144Z" fill="white"/>
<path fill-rule="evenodd" clip-rule="evenodd" d="M42.7574 6.14637C44.3264 5.59069 46 6.68612 46 8.26872V19.7312C46 21.3138 44.3264 22.4093 42.7574 21.8536L34 19V9L42.7574 6.14637Z" fill="url(#paint0_linear)"/>
<rect y="1" width="38" height="26" rx="4" fill="url(#paint1_linear)"/>
<circle cx="12" cy="5" r="1" fill="white"/>
<circle cx="4" cy="5" r="1" fill="white"/>
<circle cx="8" cy="5" r="1" fill="white"/>
<defs>
<linearGradient id="paint0_linear" x1="36" y1="6" x2="54.6137" y2="12.2514" gradientUnits="userSpaceOnUse">
<stop stop-color="#862EFF"/>
<stop offset="1" stop-color="#1A1027"/>
</linearGradient>
<linearGradient id="paint1_linear" x1="0" y1="1" x2="36.5582" y2="30.299" gradientUnits="userSpaceOnUse">
<stop stop-color="#7F29F4"/>
<stop offset="1" stop-color="#3C1B65"/>
</linearGradient>
</defs>
</svg>
